General
Complete name                    :2011 DVDRip Dual Audio [Hin-Eng] by imkhan -=[TDT]=-\Paul 2011 DVDRip Dual Audio [Hin-Eng] by imkhan -=[TDT]=-.mkv
Format                           : Matroska
File size                        : 506 MiB
Duration                         : 1h 39mn
Overall bit rate                 : 712 Kbps
Movie name                       : Paul 2011 DVDRip Dual Audio [Hin-Eng] by imkhan -=[TDT]=-
Encoded date                     : UTC 2011-09-05 13:26:46
Writing application              : mkvmerge v4.7.0 ('Just Like You Imagined') built on Apr 21 2011 01:13:14
Writing library                  : libebml v1.2.0 + libmatroska v1.1.0

Video
ID                               : 1
Format                           : AVC
Format/Info                      : Advanced Video Codec
Format profile                   : [email="High@L4.0"]High@L4.0[/email]
Format settings, CABAC           : Yes
Format settings, ReFrames        : 3 frames
Muxing mode                      : Container [email="profile=Unknown@4.0"]profile=Unknown@4.0[/email]
Codec ID                         : V_MPEG4/ISO/AVC
Duration                         : 1h 39mn
Bit rate                         : 546 Kbps
Width                            : 796 pixels
Height                           : 330 pixels
Display aspect ratio             : 2.40:1
Frame rate                       : 25.000 fps
Resolution                       : 24 bits
Colorimetry                      : 4:2:0
Scan type                        : Progressive
Bits/(Pixel*Frame)               : 0.083
Stream size                      : 388 MiB (77%)
Title                            : imkhan
Writing library                  : x264 core 104 r1683 62997d6

Language                         : Hindi

Audio #1
ID                               : 2
Format                           : MPEG Audio
Format version                   : Version 1
Format profile                   : Layer 3
Codec ID                         : A_MPEG/L3
Codec ID/Hint                    : MP3
Duration                         : 1h 39mn
Bit rate mode                    : Constant
Bit rate                         : 96.0 Kbps
Channel(s)                       : 2 channels
Sampling rate                    : 44.1 KHz
Resolution                       : 16 bits
Stream size                      : 68.3 MiB (13%)
Title                            : imkhan
Language                         : Hindi

Audio #2
ID                               : 3
Format                           : MPEG Audio
Format version                   : Version 2
Format profile                   : Layer 3
Codec ID                         : A_MPEG/L3
Codec ID/Hint                    : MP3
Duration                         : 1h 39mn
Bit rate mode                    : Constant
Bit rate                         : 56.0 Kbps
Channel(s)                       : 2 channels
Sampling rate                    : 24.0 KHz
Resolution                       : 16 bits
Stream size                      : 39.8 MiB (8%)
Title                            : imkhan

Screens: 
http://s3.postimage.org/kky2yqdp2/Paul_2011_DVDRIP_Hiest_1337x_mkv_000172719.jpg 
http://s3.postimage.org/6eiipngtc/Paul_2011_DVDRIP_Hiest_1337x_mkv_000407279.jpg 
http://s3.postimage.org/v7s7ox1b4/Paul_2011_DVDRIP_Hiest_1337x_mkv_001459839.jpg

Sample Included.
ALL CREDITS TO IMkhan.


 ~ Seed 4 others,Others would seed 4 u ~
         Be a Gentleman!!

    ______            ______   _______    
   (  __  \ |\     /|(  __  \ (  ____ \   
   | (  \  )| )   ( || (  \  )| (    \/   
   | |   ) || |   | || |   ) || (__       
   | |   | || |   | || |   | ||  __)      
   | |   ) || |   | || |   ) || (         
 _ | (__/  )| (___) || (__/  )| (____/\ _ 
(_)(______/ (_______)(______/ (_______/(_)


A simple THANKS goes a long way... :-)
Any comments would b appreciated.

